<?xml version="1.0" encoding="utf-8"?>
<!-- Generator: Adobe Illustrator 24.1.3, SVG Export Plug-In . SVG Version: 6.00 Build 0)  -->
<svg version="1.1"
	 id="svg2" xmlns:cc="http://web.resource.org/cc/" xmlns:dc="http://purl.org/dc/elements/1.1/" xmlns:inkscape="http://www.inkscape.org/namespaces/inkscape" xmlns:rdf="http://www.w3.org/1999/02/22-rdf-syntax-ns#" xmlns:sodipodi="http://inkscape.sourceforge.net/DTD/sodipodi-0.dtd" xmlns:svg="http://www.w3.org/2000/svg"
	 xmlns="http://www.w3.org/2000/svg" xmlns:xlink="http://www.w3.org/1999/xlink" x="0px" y="0px" viewBox="0 0 111.2 133.5"
	 style="enable-background:new 0 0 111.2 133.5;" xml:space="preserve">
<style type="text/css">
	.st0{fill:url(#path1948_1_);}
	.st1{fill:url(#path1950_1_);}
	.st2{opacity:0.4438;fill:url(#path1894_1_);enable-background:new    ;}
</style>
<sodipodi:namedview  bordercolor="#666666" borderopacity="1.0" id="base" inkscape:current-layer="svg2" inkscape:cx="243.02499" inkscape:cy="71.887497" inkscape:pageopacity="0.0" inkscape:pageshadow="2" inkscape:window-height="543" inkscape:window-width="791" inkscape:window-x="0" inkscape:window-y="0" inkscape:zoom="1.4340089" pagecolor="#ffffff">
	</sodipodi:namedview>
<g id="g2303">
	
		<linearGradient id="path1948_1_" gradientUnits="userSpaceOnUse" x1="-84.8845" y1="81.5605" x2="24.1319" y2="-12.2334" gradientTransform="matrix(0.5625 0 0 -0.568 45.0239 49.5234)">
		<stop  offset="0" style="stop-color:#5A9FD4"/>
		<stop  offset="1" style="stop-color:#306998"/>
	</linearGradient>
	<path id="path1948" class="st0" d="M54.9,0c-4.6,0-9,0.4-12.8,1.1C30.8,3.1,28.7,7.3,28.7,15v10.2h26.8v3.4H28.7H18.6
		c-7.8,0-14.6,4.7-16.8,13.6c-2.5,10.2-2.6,16.6,0,27.2c1.9,7.9,6.5,13.6,14.2,13.6h9.2V70.8c0-8.8,7.7-16.7,16.8-16.7h26.8
		c7.5,0,13.4-6.1,13.4-13.6V15c0-7.3-6.1-12.7-13.4-13.9C64.3,0.3,59.5,0,54.9,0z M40.4,8.2c2.8,0,5,2.3,5,5.1c0,2.8-2.3,5.1-5,5.1
		c-2.8,0-5-2.3-5-5.1C35.4,10.5,37.6,8.2,40.4,8.2z"/>
	
		<linearGradient id="path1950_1_" gradientUnits="userSpaceOnUse" x1="66.2783" y1="-69.0014" x2="27.3486" y2="-13.9226" gradientTransform="matrix(0.5625 0 0 -0.568 45.0239 49.5234)">
		<stop  offset="0" style="stop-color:#FFD43B"/>
		<stop  offset="1" style="stop-color:#FFE873"/>
	</linearGradient>
	<path id="path1950" class="st1" d="M85.6,28.7v11.9c0,9.2-7.8,17-16.8,17H42.1c-7.3,0-13.4,6.3-13.4,13.6v25.5
		c0,7.3,6.3,11.5,13.4,13.6c8.5,2.5,16.6,2.9,26.8,0c6.8-2,13.4-5.9,13.4-13.6V86.5H55.5v-3.4h26.8h13.4c7.8,0,10.7-5.4,13.4-13.6
		c2.8-8.4,2.7-16.5,0-27.2c-1.9-7.8-5.6-13.6-13.4-13.6H85.6z M70.6,93.3c2.8,0,5,2.3,5,5.1c0,2.8-2.3,5.1-5,5.1c-2.8,0-5-2.3-5-5.1
		C65.5,95.6,67.8,93.3,70.6,93.3z"/>
	
		<radialGradient id="path1894_1_" cx="165.0894" cy="107.5778" r="29.0369" gradientTransform="matrix(1.749057e-08 -0.2399 -1.0547 -3.791546e-07 169.2756 167.3126)" gradientUnits="userSpaceOnUse">
		<stop  offset="0" style="stop-color:#B8B8B8;stop-opacity:0.498"/>
		<stop  offset="1" style="stop-color:#7F7F7F;stop-opacity:0"/>
	</radialGradient>
	<path id="path1894" class="st2" d="M91.7,127.7c0,3.8-16.1,7-35.9,7s-35.9-3.1-35.9-7c0-3.8,16.1-7,35.9-7S91.7,123.9,91.7,127.7z"
		/>
</g>
</svg>
