<svg id="Layer_1" data-name="Layer 1" xmlns="http://www.w3.org/2000/svg" xmlns:xlink="http://www.w3.org/1999/xlink" viewBox="0 0 198.13 197.58"><defs><style>.cls-1,.cls-10,.cls-11,.cls-12,.cls-13,.cls-14,.cls-15,.cls-16,.cls-17,.cls-18,.cls-2,.cls-3,.cls-4,.cls-5,.cls-6,.cls-7,.cls-8,.cls-9{fill-rule:evenodd;}.cls-1{fill:url(#Linear_Gradient_1);}.cls-2{fill:url(#Linear_Gradient_2);}.cls-3{fill:url(#Linear_Gradient_2-2);}.cls-4{fill:url(#Linear_Gradient_3);}.cls-5{fill:url(#Linear_Gradient_4);}.cls-6{fill:url(#Linear_Gradient_5);}.cls-7{fill:url(#Linear_Gradient_6);}.cls-8{fill:url(#Linear_Gradient_7);}.cls-9{fill:#fff;}.cls-10{fill:url(#Linear_Gradient_8);}.cls-11{fill:url(#Linear_Gradient_9);}.cls-12{fill:url(#Linear_Gradient_10);}.cls-13{fill:url(#Linear_Gradient_11);}.cls-14{fill:#aa3e35;}.cls-15{fill:url(#Radial_Gradient_1);}.cls-16{fill:url(#Radial_Gradient_2);}.cls-17{fill:url(#Linear_Gradient_12);}.cls-18{fill:url(#Linear_Gradient_13);}</style><linearGradient id="Linear_Gradient_1" x1="174.07" y1="215.54" x2="132.27" y2="141.74" gradientUnits="userSpaceOnUse"><stop offset="0" stop-color="#f68f71"/><stop offset="0.41" stop-color="#dc5242"/><stop offset="0.99" stop-color="#a72c32"/><stop offset="1" stop-color="#a72c32"/></linearGradient><linearGradient id="Linear_Gradient_2" x1="194.89" y1="153.56" x2="141.03" y2="117.41" gradientUnits="userSpaceOnUse"><stop offset="0" stop-color="#9b3f34"/><stop offset="0.99" stop-color="#a23e36"/><stop offset="1" stop-color="#a23e36"/></linearGradient><linearGradient id="Linear_Gradient_2-2" x1="151.79" y1="217.78" x2="97.93" y2="181.63" xlink:href="#Linear_Gradient_2"/><linearGradient id="Linear_Gradient_3" x1="38.7" y1="127.39" x2="47.05" y2="181.66" gradientUnits="userSpaceOnUse"><stop offset="0" stop-color="#fff"/><stop offset="0.23" stop-color="#e28b6f"/><stop offset="0.46" stop-color="#da6144"/><stop offset="0.99" stop-color="#a60003"/><stop offset="1" stop-color="#a60003"/></linearGradient><linearGradient id="Linear_Gradient_4" x1="96.13" y1="76.71" x2="99.21" y2="132.1" gradientUnits="userSpaceOnUse"><stop offset="0" stop-color="#fff"/><stop offset="0.23" stop-color="#e08a6d"/><stop offset="0.56" stop-color="#c14435"/><stop offset="0.99" stop-color="#b13430"/><stop offset="1" stop-color="#b13430"/></linearGradient><linearGradient id="Linear_Gradient_5" x1="147.1" y1="25.52" x2="156.32" y2="65.22" gradientUnits="userSpaceOnUse"><stop offset="0" stop-color="#fff"/><stop offset="0.18" stop-color="#df8063"/><stop offset="0.4" stop-color="#c94d37"/><stop offset="0.99" stop-color="#b13430"/><stop offset="1" stop-color="#b13430"/></linearGradient><linearGradient id="Linear_Gradient_6" x1="118.98" y1="11.54" x2="158.67" y2="-8.31" gradientUnits="userSpaceOnUse"><stop offset="0" stop-color="#fff"/><stop offset="0.54" stop-color="#c94838"/><stop offset="0.99" stop-color="#c12d2f"/><stop offset="1" stop-color="#c12d2f"/></linearGradient><linearGradient id="Linear_Gradient_7" x1="3.9" y1="113.56" x2="7.17" y2="146.27" gradientUnits="userSpaceOnUse"><stop offset="0" stop-color="#fff"/><stop offset="0.31" stop-color="#da6548"/><stop offset="0.99" stop-color="#c14433"/><stop offset="1" stop-color="#c14433"/></linearGradient><linearGradient id="Linear_Gradient_8" x1="-52.88" y1="119.82" x2="100.69" y2="-38.1" gradientUnits="userSpaceOnUse"><stop offset="0" stop-color="#bd0012"/><stop offset="0.07" stop-color="#fff"/><stop offset="0.17" stop-color="#fff"/><stop offset="0.27" stop-color="#c95841"/><stop offset="0.33" stop-color="#983734"/><stop offset="0.46" stop-color="#ae4231"/><stop offset="0.72" stop-color="#b93e2f"/><stop offset="0.99" stop-color="#de4e2b"/><stop offset="1" stop-color="#de4e2b"/></linearGradient><linearGradient id="Linear_Gradient_9" x1="64.76" y1="135.74" x2="18.5" y2="124.33" gradientUnits="userSpaceOnUse"><stop offset="0" stop-color="#9f3633"/><stop offset="0.54" stop-color="#a73532"/><stop offset="0.99" stop-color="#b13439"/><stop offset="1" stop-color="#b13439"/></linearGradient><linearGradient id="Linear_Gradient_10" x1="144.21" y1="80.22" x2="103.11" y2="43.39" gradientUnits="userSpaceOnUse"><stop offset="0" stop-color="#923c36"/><stop offset="0.99" stop-color="#aa3531"/><stop offset="1" stop-color="#aa3531"/></linearGradient><linearGradient id="Linear_Gradient_11" x1="159.3" y1="12.65" x2="138.83" y2="-9.24" gradientUnits="userSpaceOnUse"><stop offset="0" stop-color="#8d3e36"/><stop offset="0.99" stop-color="#aa3e37"/><stop offset="1" stop-color="#aa3e37"/></linearGradient><radialGradient id="Radial_Gradient_1" cx="109.51" cy="44.1" r="50.36" gradientUnits="userSpaceOnUse"><stop offset="0" stop-color="#b13430"/><stop offset="0.99" stop-color="#923934"/><stop offset="1" stop-color="#923934"/></radialGradient><radialGradient id="Radial_Gradient_2" cx="39.77" cy="110.46" r="66.95" gradientUnits="userSpaceOnUse"><stop offset="0" stop-color="#ae3531"/><stop offset="0.99" stop-color="#953a36"/><stop offset="1" stop-color="#953a36"/></radialGradient><linearGradient id="Linear_Gradient_12" x1="-7.65" y1="162.05" x2="-24.33" y2="105.45" gradientUnits="userSpaceOnUse"><stop offset="0" stop-color="#994939"/><stop offset="0.43" stop-color="#aa3a36"/><stop offset="0.99" stop-color="#b83936"/><stop offset="1" stop-color="#b83936"/></linearGradient><linearGradient id="Linear_Gradient_13" x1="120.32" y1="-25.49" x2="157.72" y2="-8.98" gradientUnits="userSpaceOnUse"><stop offset="0" stop-color="#b9392f"/><stop offset="0.44" stop-color="#a23a36"/><stop offset="0.99" stop-color="#8d463a"/><stop offset="1" stop-color="#8d463a"/></linearGradient></defs><polygon class="cls-1" points="40.38 197.58 186.85 187.64 198.13 39.95 153.5 130.41 40.38 197.58"/><polygon class="cls-2" points="140.21 145.93 187.09 187.54 174.5 100.65 140.21 145.93"/><polygon class="cls-3" points="40.87 197.39 187.26 187.54 95.03 180.3 40.87 197.39"/><polygon class="cls-4" points="13.34 132.77 41 197.41 64.04 121.93 13.34 132.77"/><polygon class="cls-5" points="58.33 120.01 140.2 146.18 119 63.14 58.33 120.01"/><polygon class="cls-6" points="120 69.1 193.32 64.31 135.97 17.47 120 69.1"/><polygon class="cls-7" points="111.49 0.52 166.5 0.77 132.77 19.41 111.49 0.52"/><polygon class="cls-8" points="2.7 101.62 0 158.09 14.13 132.32 2.7 101.62"/><path class="cls-9" d="M-32.38,65.36-20.88,98l50-11.21,57.05-53,16.1-51.14L76.89-35.29,33.79-19.16C20.21-6.53-6.14,18.46-7.09,18.93S-24.49,50.52-32.38,65.36Z" transform="translate(34.32 35.29)"/><path class="cls-10" d="M8,6.76C37.43-22.42,75.37-39.66,89.93-25s-.88,50.39-30.31,79.56S-7.28,102-21.83,87.26-21.43,35.93,8,6.76Z" transform="translate(34.32 35.29)"/><path class="cls-11" d="M6.68,162.09,29.54,86.37l75.92,24.39C78,136.5,47.48,158.26,6.68,162.09Z" transform="translate(34.32 35.29)"/><path class="cls-12" d="M86.24,33.6l19.49,77.2c22.93-24.11,43.51-50,53.59-82.09Z" transform="translate(34.32 35.29)"/><path class="cls-13" d="M159.12,29.1c7.8-23.54,9.6-57.31-27.18-63.58L101.76-17.81Z" transform="translate(34.32 35.29)"/><path class="cls-14" d="M-34.32,122.46c1.08,38.85,29.11,39.43,41.05,39.77L-20.85,97.82Z" transform="translate(34.32 35.29)"/><path class="cls-15" d="M86.35,33.72C104,44.55,139.48,66.3,140.2,66.7c1.12.63,15.31-23.93,18.53-37.81Z" transform="translate(34.32 35.29)"/><path class="cls-16" d="M29.51,86.37l30.56,59c18.07-9.8,32.22-21.74,45.18-34.53Z" transform="translate(34.32 35.29)"/><path class="cls-17" d="M-21,97.9l-4.33,51.56c8.17,11.16,19.41,12.13,31.2,11.26C-2.63,139.49-19.67,97-21,97.9Z" transform="translate(34.32 35.29)"/><path class="cls-18" d="M101.58-17.68l60.71,8.52c-3.24-13.73-13.19-22.59-30.15-25.36Z" transform="translate(34.32 35.29)"/></svg>